<svg width="45" height="45" viewBox="0 0 45 45" fill="none" xmlns="http://www.w3.org/2000/svg">
<g clip-path="url(#clip0_178_370)">
<mask id="mask0_178_370" style="mask-type:luminance" maskUnits="userSpaceOnUse" x="0" y="0" width="45" height="45">
<path d="M0 0H45V45H0V0Z" fill="white"/>
</mask>
<g mask="url(#mask0_178_370)">
<path d="M44.0625 12.2006C43.8065 11.2922 43.3103 10.4695 42.6262 9.81932C41.9218 9.14995 41.0584 8.67114 40.1175 8.42807C36.5962 7.49995 22.4887 7.49995 22.4887 7.49995C16.6075 7.4348 10.7278 7.7291 4.88248 8.3812C3.94159 8.64222 3.07979 9.13173 2.37373 9.8062C1.67998 10.4737 1.17748 11.2968 0.914981 12.1987C0.283393 15.5956 -0.0229926 19.0449 -1.86466e-05 22.4999C-0.0225186 25.9518 0.283106 29.3999 0.914981 32.8012C1.17186 33.6993 1.67248 34.5187 2.36811 35.1806C3.06373 35.8424 3.92998 36.3206 4.88248 36.5737C8.45061 37.4999 22.4887 37.4999 22.4887 37.4999C28.3775 37.566 34.2647 37.2717 40.1175 36.6187C41.0584 36.3756 41.9218 35.8968 42.6262 35.2274C43.3096 34.577 43.8051 33.7544 44.0606 32.8462C44.7074 29.4504 45.022 25.9998 45 22.5431C45.0484 19.0717 44.7342 15.6067 44.0625 12.2006ZM18.0037 28.9199V16.0818L29.7412 22.5018L18.0037 28.9199Z" fill="white"/>
</g>
</g>
<defs>
<clipPath id="clip0_178_370">
<rect width="45" height="45" fill="white"/>
</clipPath>
</defs>
</svg>
