<svg width="40" height="40" viewBox="0 0 40 40" fill="none" xmlns="http://www.w3.org/2000/svg">
<path d="M33.0174 8.55386C32.7472 8.41456 32.4844 8.26148 32.2299 8.09524C31.4895 7.60629 30.8109 7.02973 30.2087 6.37807C28.6995 4.65201 28.136 2.90106 27.9298 1.67629H27.9369C27.7645 0.657716 27.8356 0 27.848 0H20.9776V26.5628C20.9799 26.9184 20.9752 27.2709 20.9633 27.6205L20.9562 27.7503C20.9562 27.7692 20.9544 27.7888 20.9509 27.8089V27.8249C20.8787 28.7778 20.5735 29.6983 20.0621 30.5054C19.5506 31.3126 18.8486 31.9817 18.0178 32.4538C17.1519 32.9489 16.1711 33.2076 15.1736 33.204C11.9739 33.204 9.3786 30.5945 9.3786 27.3717C9.3786 24.1488 11.9739 21.5375 15.1736 21.5375C15.7798 21.5375 16.3824 21.6335 16.9584 21.822L16.9673 14.8253C15.2181 14.5998 13.4412 14.7393 11.7487 15.235C10.0561 15.7306 8.4847 16.5716 7.13347 17.705C5.94977 18.7339 4.95425 19.961 4.19152 21.3313C3.90176 21.8308 2.80675 23.8413 2.67521 27.1015C2.59166 28.9502 3.14805 30.87 3.41292 31.661V31.6788C3.57824 32.1445 4.22529 33.7373 5.27764 35.0794C6.1271 36.1558 7.12965 37.1021 8.25337 37.888V37.8702L8.26937 37.888C11.5935 40.1456 15.2821 39.998 15.2821 39.998C15.9202 39.9714 18.0587 39.998 20.4869 38.8479C23.18 37.5716 24.7123 35.6713 24.7123 35.6713C25.6928 34.5363 26.472 33.2419 27.0161 31.8441C27.6383 30.2087 27.8445 28.2498 27.8445 27.4676V13.373C27.928 13.4227 29.0391 14.1569 29.0391 14.1569C29.0391 14.1569 30.6389 15.1826 33.1329 15.8492C34.9212 16.3238 37.3334 16.4251 37.3334 16.4251V9.60443C36.489 9.69687 34.7736 9.43023 33.0156 8.55564" fill="white"/>
</svg>
