<svg width="45" height="45" viewBox="0 0 45 45" fill="none" xmlns="http://www.w3.org/2000/svg">
<g clip-path="url(#clip0_178_434)">
<path d="M35.1 30.6436C36.8881 29.9573 40.0674 29.0451 41.0249 30.1464C42.0595 31.3376 40.7518 33.9245 39.5469 35.9333" stroke="white" stroke-width="2" stroke-linecap="round" stroke-linejoin="round"/>
<path d="M3.0969 31.2269C5.86122 33.4395 14.0253 36.8258 22.7222 36.8258C28.4284 36.9616 34.0278 35.252 38.6999 31.9475M16.6215 15.2333V20.4599C16.6215 21.3001 16.9526 22.1058 17.5421 22.6998C18.1315 23.2939 18.931 23.6276 19.7645 23.6276C20.5981 23.6276 21.3976 23.2939 21.987 22.6998C22.5765 22.1058 22.9076 21.3001 22.9076 20.4599M22.9076 20.4599V15.2333M22.9076 20.4599V23.6276M0.899902 18.5593C0.899902 17.7192 1.23105 16.9135 1.82048 16.3195C2.40992 15.7254 3.20937 15.3917 4.04296 15.3917C4.87655 15.3917 5.676 15.7254 6.26544 16.3195C6.85488 16.9135 7.18602 17.7192 7.18602 18.5593M7.18602 18.5593V23.6276M7.18602 18.5593C7.18602 17.7192 7.51716 16.9135 8.1066 16.3195C8.69604 15.7254 9.49549 15.3917 10.3291 15.3917C11.1627 15.3917 11.9621 15.7254 12.5516 16.3195C13.141 16.9135 13.4721 17.7192 13.4721 18.5593V23.6276M0.899902 15.3917V23.6276" stroke="white" stroke-width="2" stroke-linecap="round" stroke-linejoin="round"/>
<path d="M34.6499 12.5333C35.3955 12.5333 35.9999 12.1303 35.9999 11.6333C35.9999 11.1362 35.3955 10.7333 34.6499 10.7333C33.9043 10.7333 33.2999 11.1362 33.2999 11.6333C33.2999 12.1303 33.9043 12.5333 34.6499 12.5333Z" fill="white"/>
<path d="M34.8948 15.2701V24.2127M26.3011 23.4501C27.0555 24.0562 28.0069 24.3271 28.95 24.2043H29.671C30.2358 24.2034 30.7772 23.9674 31.1761 23.5482C31.5751 23.129 31.7989 22.5608 31.7985 21.9686C31.7989 21.3764 31.5751 20.8083 31.1761 20.3891C30.7772 19.9699 30.2358 19.7339 29.671 19.733H28.2275C27.6626 19.7321 27.1213 19.4961 26.7223 19.0769C26.3234 18.6577 26.0995 18.0895 26.1 17.4973C26.0995 16.9051 26.3234 16.337 26.7223 15.9177C27.1213 15.4985 27.6626 15.2625 28.2275 15.2616H28.95C29.8924 15.1402 30.8425 15.4117 31.5957 16.0176M44.1 22.5136C43.8182 23.0301 43.4113 23.4592 42.9204 23.7576C42.4295 24.056 41.8721 24.213 41.3046 24.2127C40.451 24.2127 39.6323 23.8572 39.0287 23.2244C38.4251 22.5915 38.086 21.7332 38.086 20.8382V18.6447C38.086 17.7497 38.4251 16.8913 39.0287 16.2585C39.6323 15.6256 40.451 15.2701 41.3046 15.2701C41.871 15.2699 42.4275 15.4264 42.9177 15.7239C43.408 16.0213 43.8147 16.4491 44.0968 16.9641" stroke="white" stroke-width="2" stroke-linecap="round" stroke-linejoin="round"/>
</g>
<defs>
<clipPath id="clip0_178_434">
<rect width="45" height="45" fill="white"/>
</clipPath>
</defs>
</svg>
