<svg width="45" height="45" viewBox="0 0 45 45" fill="none" xmlns="http://www.w3.org/2000/svg">
<g clip-path="url(#clip0_178_428)">
<path d="M22.5 0C16.5326 0 10.8097 2.37053 6.5901 6.5901C2.37053 10.8097 0 16.5326 0 22.5C0 28.4674 2.37053 34.1903 6.5901 38.4099C10.8097 42.6295 16.5326 45 22.5 45C28.4674 45 34.1903 42.6295 38.4099 38.4099C42.6295 34.1903 45 28.4674 45 22.5C45 16.5326 42.6295 10.8097 38.4099 6.5901C34.1903 2.37053 28.4674 0 22.5 0ZM32.8191 32.4506C32.6242 32.7674 32.3118 32.994 31.9502 33.081C31.5886 33.168 31.2073 33.1082 30.8897 32.9147C25.605 29.6888 18.9562 28.9575 11.1234 30.7491C10.7605 30.8319 10.3796 30.7671 10.0645 30.5691C9.74933 30.371 9.52577 30.0559 9.44297 29.693C9.36017 29.3301 9.42492 28.9492 9.62298 28.634C9.82104 28.3189 10.1362 28.0953 10.4991 28.0125C19.0716 26.055 26.4234 26.8959 32.3522 30.5212C32.6694 30.7157 32.8967 31.0279 32.9842 31.3895C33.0717 31.7511 33.0123 32.1327 32.8191 32.4506ZM35.5725 26.325C35.3288 26.7213 34.9378 27.0047 34.4853 27.1128C34.0328 27.2209 33.5559 27.1449 33.1594 26.9016C27.1125 23.1862 17.8931 22.1091 10.7381 24.2803C10.3026 24.3838 9.84404 24.3172 9.45593 24.0942C9.06782 23.8712 8.77941 23.5085 8.64953 23.0801C8.51966 22.6518 8.5581 22.19 8.75702 21.789C8.95594 21.388 9.30035 21.078 9.72 20.9222C17.8903 18.4444 28.0491 19.6453 34.9931 23.9119C35.3899 24.1551 35.6739 24.5459 35.7825 24.9985C35.8912 25.451 35.8156 25.9282 35.5725 26.325ZM35.8088 19.9463C28.5581 15.6375 16.5938 15.2409 9.66937 17.3419C9.13529 17.5037 8.55879 17.4468 8.06668 17.1836C7.57458 16.9204 7.20718 16.4725 7.04531 15.9384C6.88345 15.4044 6.94037 14.8279 7.20357 14.3357C7.46677 13.8436 7.91467 13.4762 8.44875 13.3144C16.3941 10.9041 29.6072 11.3681 37.9575 16.3237C38.4379 16.6087 38.7854 17.0728 38.9236 17.614C39.0618 18.1551 38.9793 18.729 38.6944 19.2094C38.4094 19.6897 37.9453 20.0373 37.4042 20.1754C36.863 20.3136 36.2891 20.2312 35.8088 19.9463Z" fill="white"/>
</g>
<defs>
<clipPath id="clip0_178_428">
<rect width="45" height="45" fill="white"/>
</clipPath>
</defs>
</svg>
