<svg width="45" height="45" viewBox="0 0 45 45" fill="none" xmlns="http://www.w3.org/2000/svg">
<path d="M39.2987 35.13C38.6821 37.7941 36.6779 39.2914 33.9897 39.797C31.6291 40.2346 29.6635 40.3415 27.775 38.8053C25.4722 36.8509 25.4433 33.6132 27.5149 31.5713C29.1528 29.9962 31.4557 29.6753 34.9147 29.0628C35.4928 28.9558 35.9938 28.8197 36.4178 28.3433C37.0344 27.6432 36.8417 27.9446 36.8417 12.4753C36.8417 11.3863 36.3118 11.0849 35.2038 11.2793C34.4137 11.4154 17.3112 14.6435 17.3112 14.6435C16.3284 14.8574 16.0201 15.1491 16.0201 16.2672C16.0201 39.0872 16.126 38.0371 15.7792 39.5539C15.3745 41.3235 14.2954 42.6556 12.8693 43.3945C11.2506 44.2988 8.32152 44.6974 6.76062 44.4057C2.59821 43.6182 1.13366 38.7664 3.95677 35.9856C5.59476 34.4104 7.89757 34.0896 11.3566 33.477C11.9347 33.3701 12.4358 33.234 12.8597 32.7575C13.8329 31.6394 13.0331 7.80819 13.3607 6.48586C13.4378 5.98026 13.6498 5.55244 14.0448 5.23158C14.4495 4.89128 15.1818 4.69682 15.336 4.69682C34.9918 0.982611 37.3909 0.506181 37.7282 0.506181C38.8362 0.428397 39.4721 1.08956 39.4721 2.21744C39.4914 35.7133 39.5781 33.9146 39.2987 35.13Z" fill="white"/>
</svg>
