<svg width="45" height="45" viewBox="0 0 45 45" fill="none" xmlns="http://www.w3.org/2000/svg">
<g clip-path="url(#clip0_181_294)">
<path d="M1.30078 9.0205C0.580078 9.0205 0 11.3319 0 14.1841C0 17.0363 0.580078 19.3477 1.30078 19.3477C2.02148 19.3477 2.60156 17.0363 2.60156 14.1841C2.60156 11.3319 2.02148 9.0205 1.30078 9.0205ZM39.4365 3.76966C38.7598 3.76966 38.1621 5.26118 37.7314 7.6162C37.0547 3.54288 35.9561 0.900024 34.7256 0.900024C33.249 0.900024 31.9922 4.6419 31.3857 10.0933C30.8057 6.13341 29.9092 3.62139 28.8984 3.62139C27.4834 3.62139 26.2969 8.58438 25.8486 15.5012C25.0225 11.9425 23.8096 9.71828 22.4824 9.71828C21.1553 9.71828 19.9512 11.9425 19.1162 15.5012C18.668 8.58438 17.4814 3.62139 16.0664 3.62139C15.0557 3.62139 14.1592 6.13341 13.5791 10.0933C12.999 4.6419 11.7158 0.900024 10.2568 0.900024C9.02637 0.900024 7.92773 3.55161 7.25098 7.6162C6.8291 5.26118 6.22266 3.76966 5.5459 3.76966C4.28906 3.76966 3.26074 8.93327 3.26074 15.2918C3.26074 21.6504 4.30664 26.8227 5.56348 26.8227C6.08203 26.8227 6.57422 25.9592 6.95215 24.4852C7.55859 29.8668 8.81543 33.5651 10.292 33.5651C11.4346 33.5651 12.4453 31.3409 13.1133 27.8432C13.5879 34.4984 14.748 39.2171 16.1191 39.2171C16.9717 39.2171 17.7539 37.3506 18.3428 34.2978C19.0371 40.5953 20.6543 45 22.5352 45C24.416 45 26.0068 40.5953 26.7275 34.2978C27.3076 37.3506 28.0986 39.2171 28.9512 39.2171C30.3223 39.2171 31.4824 34.4984 31.957 27.8432C32.6338 31.3409 33.6621 33.5651 34.7783 33.5651C36.2373 33.5651 37.4941 29.8755 38.1182 24.4852C38.4961 25.9505 38.9707 26.8227 39.5068 26.8227C40.7637 26.8227 41.792 21.6591 41.792 15.3006C41.792 8.94199 40.6934 3.76966 39.4365 3.76966ZM43.6992 9.0205C42.9785 9.0205 42.3984 11.3319 42.3984 14.1841C42.3984 17.0363 42.9785 19.3477 43.6992 19.3477C44.4199 19.3477 45 17.0363 45 14.1841C45 11.3319 44.4199 9.0205 43.6992 9.0205Z" fill="white"/>
</g>
<defs>
<clipPath id="clip0_181_294">
<rect width="45" height="45" fill="white"/>
</clipPath>
</defs>
</svg>
