<svg width="39" height="48" viewBox="0 0 39 48" fill="none" xmlns="http://www.w3.org/2000/svg">
<mask id="path-1-inside-1_165_309" fill="white">
<path d="M13 0C14.1046 0 15 0.895431 15 2V46C15 47.1046 14.1046 48 13 48H2C0.895431 48 3.22133e-08 47.1046 0 46V2C5.15413e-07 0.895431 0.895431 5.63724e-08 2 0H13ZM37 0C38.1046 0 39 0.895431 39 2V46C39 47.1046 38.1046 48 37 48H26C24.8954 48 24 47.1046 24 46V2C24 0.895431 24.8954 5.63724e-08 26 0H37Z"/>
</mask>
<path d="M13 0C14.1046 0 15 0.895431 15 2V46C15 47.1046 14.1046 48 13 48H2C0.895431 48 3.22133e-08 47.1046 0 46V2C5.15413e-07 0.895431 0.895431 5.63724e-08 2 0H13ZM37 0C38.1046 0 39 0.895431 39 2V46C39 47.1046 38.1046 48 37 48H26C24.8954 48 24 47.1046 24 46V2C24 0.895431 24.8954 5.63724e-08 26 0H37Z" fill="white"/>
<path d="M15 2H16V2H15ZM15 46H16V46H15ZM13 48V49V49V48ZM0 46H-1V46H0ZM0 2L-1 2V2H0ZM2 0V-1V-1V0ZM39 2H40V2H39ZM39 46H40V46H39ZM37 48V49V49V48ZM24 46H23V46H24ZM24 2L23 2V2H24ZM26 0V-1V-1V0ZM13 0V1C13.5523 1 14 1.44772 14 2H15H16C16 0.343146 14.6569 -1 13 -1V0ZM15 2H14V46H15H16V2H15ZM15 46H14C14 46.5523 13.5523 47 13 47V48V49C14.6569 49 16 47.6569 16 46H15ZM13 48V47H2V48V49H13V48ZM2 48V47C1.44772 47 1 46.5523 1 46H0H-1C-1 47.6569 0.343146 49 2 49V48ZM0 46H1V2H0H-1V46H0ZM0 2L1 2C1 1.44772 1.44772 1 2 1V0V-1C0.343146 -1 -0.999999 0.343147 -1 2L0 2ZM2 0V1H13V0V-1H2V0ZM37 0V1C37.5523 1 38 1.44772 38 2H39H40C40 0.343146 38.6569 -1 37 -1V0ZM39 2H38V46H39H40V2H39ZM39 46H38C38 46.5523 37.5523 47 37 47V48V49C38.6569 49 40 47.6569 40 46H39ZM37 48V47H26V48V49H37V48ZM26 48V47C25.4477 47 25 46.5523 25 46H24H23C23 47.6569 24.3431 49 26 49V48ZM24 46H25V2H24H23V46H24ZM24 2L25 2C25 1.44772 25.4477 1 26 1V0V-1C24.3431 -1 23 0.343147 23 2L24 2ZM26 0V1H37V0V-1H26V0Z" fill="#009BEE" mask="url(#path-1-inside-1_165_309)"/>
</svg>
