<svg width="50" height="50" viewBox="0 0 50 50" fill="none" xmlns="http://www.w3.org/2000/svg">
<path d="M21.8 17.2C22.3521 17.2 22.8 21.5875 22.8 27L22.7979 27.7313C22.7583 32.8021 22.3271 36.8 21.8 36.8C21.2667 36.8 20.8312 32.7063 20.8 27.55V26.8167C20.8104 21.4896 21.2542 17.2 21.8 17.2ZM18.3333 19.2C18.8729 19.2 19.3125 22.95 19.3333 27.6458V28.3542C19.3125 33.05 18.8729 36.8 18.3333 36.8C17.8021 36.8 17.3667 33.1438 17.3333 28.5292V27.8208L17.3375 27.1125C17.3896 22.6688 17.8167 19.2 18.3333 19.2ZM14.8667 19.2C15.3979 19.2 15.8333 22.8563 15.8667 27.4708V28.1792L15.8625 28.8875C15.8104 33.3313 15.3833 36.8 14.8667 36.8C14.3271 36.8 13.8875 33.05 13.8667 28.3542V27.6458C13.8875 22.95 14.3271 19.2 14.8667 19.2ZM11.4 20.4C11.9521 20.4 12.4 24.0708 12.4 28.6L12.3958 29.2979C12.3542 33.5 11.9229 36.8 11.4 36.8C10.8542 36.8 10.4125 33.2229 10.4 28.775V28.425C10.4125 23.9771 10.8542 20.4 11.4 20.4ZM7.93333 24C8.48542 24 8.93333 26.8646 8.93333 30.4V30.7292C8.90625 34.1104 8.46875 36.8 7.93333 36.8C7.38125 36.8 6.93333 33.9354 6.93333 30.4V30.0708C6.96042 26.6896 7.39792 24 7.93333 24ZM30.4 14C35.775 14 40.2333 17.9292 41.0625 23.0729C41.6792 22.8938 42.325 22.8035 43 22.8021C44.8291 22.8261 46.576 23.5652 47.867 24.8611C49.1581 26.157 49.8905 27.9067 49.9077 29.7359C49.9248 31.565 49.2253 33.3282 47.9588 34.648C46.6923 35.9679 44.9595 36.7396 43.1312 36.7979L43 36.8H26C25.576 36.7989 25.1697 36.63 24.8698 36.3302C24.57 36.0303 24.4011 35.624 24.4 35.2V15.8188C26.1749 14.6298 28.2637 13.9966 30.4 14ZM4.46667 23.6C5.01875 23.6 5.46667 26.3771 5.46667 29.8V30.125C5.4375 33.3958 5.00208 36 4.46667 36C3.925 36 3.48125 33.3125 3.46667 29.9625V29.8C3.46667 26.3771 3.91458 23.6 4.46667 23.6ZM1 25.6C1.55208 25.6 2 27.5708 2 30V30.2729C1.96667 32.575 1.53125 34.4 1 34.4C0.447917 34.4 0 32.4292 0 30V29.7271C0.0333333 27.425 0.46875 25.6 1 25.6Z" fill="white"/>
</svg>
