<svg width="45" height="45" viewBox="0 0 45 45" fill="none" xmlns="http://www.w3.org/2000/svg">
<g clip-path="url(#clip0_181_288)">
<path d="M22.5 0C10.08 0 0 10.08 0 22.5C0 34.92 10.08 45 22.5 45C34.92 45 45 34.92 45 22.5C45 10.08 34.92 0 22.5 0ZM22.5 35.82C15.1425 35.82 9.18 29.8575 9.18 22.5C9.18 15.1425 15.1425 9.18 22.5 9.18C29.8575 9.18 35.82 15.1425 35.82 22.5C35.82 29.8575 29.8575 35.82 22.5 35.82ZM22.5 10.8225C16.065 10.8225 10.8225 16.065 10.8225 22.5C10.8225 28.935 16.065 34.1775 22.5 34.1775C28.935 34.1775 34.1775 28.935 34.1775 22.5C34.1775 16.065 28.935 10.8225 22.5 10.8225ZM18.1575 29.1375V15.8625L29.655 22.5L18.1575 29.1375Z" fill="white"/>
</g>
<defs>
<clipPath id="clip0_181_288">
<rect width="45" height="45" fill="white"/>
</clipPath>
</defs>
</svg>
